{"title":"Blended.2014.AVI.BRRip.360p.DivX.NLsub.{Th3Sp3cialist}","uid":10915746,"size":1335548446,"categoryP":"video","categoryS":"movies","magnet":"?xt=urn:btih:e1ef2be1a7a595455eaa0805f392c133833a9f6e&amp;dn=Blended.2014.AVI.BRRip.360p.DivX.NLsub.%7BTh3Sp3cialist%7D&amp;tr=udp%3A%2F%2Ftracker.openbittorrent.com%3A80&amp;tr=udp%3A%2F%2Fopen.demonii.com%3A1337&amp;tr=udp%3A%2F%2Ftracker.coppersurfer.tk%3A6969&amp;tr=udp%3A%2F%2Fexodus.desync.com%3A6969","seeders":3,"leechers":0,"uploader":"HOLLANDmovies","files":-1,"time":1409304802,"description":"INFO\n\nBlended (2014)\n6 117 min - Comedy\n\nAfter a bad blind date, a man and woman find themselves stuck together at a resort for families, where their attraction grows as their respective kids benefit from the burgeoning relationship.\n\nDirector: Frank Coraci\nWriters: Ivan Menchell, Clare Sera\nStars: Adam Sandler, Drew Barrymore, Wendi McLendon-Covey \n\nGENERAL:\n\nComplete name : Blended.2014.AVI.BRRip.360p.DivX.NLsub.{Th3Sp3cialist}.Movie.avi\nFormat : AVI\nFormat/Info : Audio Video Interleave\nFormat profile : OpenDML\nFile size : 1.23 GiB\nDuration : 1h 57mn\nOverall bit rate : 1 504 Kbps\n\nVideo\nID : 0\nOriginal Source : Blended 2014 720p BRRip H264 AAC - KiNGDOM\nFormat : xvid\nCodec ID : xvid\nDuration : 1h 57mn\nBit rate : 1 168 Kbps\nWidth : 640 pixels\nHeight : 360 pixels\nDisplay aspect ratio : 16:9\nFrame rate : 23.976 fps\nBits/(Pixel*Frame) : 0.211\nStream size : 979 MiB (78%)\n\nAudio\nID : 1\nFormat : MPEG Audio\nFormat version : Version 1\nFormat profile : Layer 3\nMode : Joint stereo\nMode extension : MS Stereo\nCodec ID : 55\nCodec ID/Hint : MP3\nDuration : 1h 57mn\nBit rate mode : Constant\nBit rate : 320 Kbps\nChannel(s) : 2 channels\nSampling rate : 48.0 KHz\nCompression mode : Lossy\nStream size : 268 MiB (21%)\nAlignment : Aligned on interleaves\nInterleave, duration : 24 ms (0.58 video frame)\n &lt;a href=&quot;\nhttp://bayimg.com/mAaFBaagB&quot; rel=&quot;nofollow&quot; target=&quot;_NEW&quot;&gt;\nhttp://bayimg.com/mAaFBaagB&lt;/a&gt; &lt;a href=&quot;\nhttp://bayimg.com/maaFcaAgB&quot; rel=&quot;nofollow&quot; target=&quot;_NEW&quot;&gt;\nhttp://bayimg.com/maaFcaAgB&lt;/a&gt; &lt;a href=&quot;\nhttp://bayimg.com/MAAfdAAGb&quot; rel=&quot;nofollow&quot; target=&quot;_NEW&quot;&gt;\nhttp://bayimg.com/MAAfdAAGb&lt;/a&gt;","torrent":{"xt":"urn:btih:e1ef2be1a7a595455eaa0805f392c133833a9f6e","amp;dn":"Blended.2014.AVI.BRRip.360p.DivX.NLsub.%7BTh3Sp3cialist%7D","amp;tr":["udp%3A%2F%2Ftracker.openbittorrent.com%3A80","udp%3A%2F%2Fopen.demonii.com%3A1337","udp%3A%2F%2Ftracker.coppersurfer.tk%3A6969","udp%3A%2F%2Fexodus.desync.com%3A6969"],"infoHash":"e1ef2be1a7a595455eaa0805f392c133833a9f6e","infoHashBuffer":{"type":"Buffer","data":[225,239,43,225,167,165,149,69,94,170,8,5,243,146,193,51,131,58,159,110]},"announce":[],"urlList":[]}}